<?xml version="1.0" encoding="UTF-8"?>
<svg id="Ebene_1" xmlns="http://www.w3.org/2000/svg" version="1.1" viewBox="0 0 64 64">
  <!-- Generator: Adobe Illustrator 29.8.2, SVG Export Plug-In . SVG Version: 2.1.1 Build 3)  -->
  <defs>
    <style>
      .st0 {
        fill: #ffc7d7;
        stroke: #000;
        stroke-miterlimit: 10;
      }
    </style>
  </defs>
  <g>
    <path d="M38.267,6.687c.597.479,1.047,1.97,1.355,3.302.18.776.945,1.206,1.718,1.013,1.695-.423,3.421,1.418,4.235,3.048.024.049.046.099.066.15,2.508,6.565-4.269,3.201-.809,21.621.005.029,1.595,7.637,3.184,15.037,1.29,6.006-2.667,11.915-8.726,12.932-.138.023-.276.046-.413.068-5.878.942-11.442-2.927-12.597-8.767-.137-.694-.258-1.343-.355-1.912-1.072-6.349-1.928-12.759-3.771-18.905-.012-.04-.022-.08-.029-.12-1.218-6.439-7.222-12.437-5.778-19.16.02-.093.049-.185.087-.272.701-1.581,2.234-2.967,3.407-2.282,2.658,1.553,1.667-.505,1.676-1.394.034-3.13,2.347-6.128,5.88-3.546,3.281,3.562,3.446,1.575,3.748.44.138-.52.377-1.236,1.029-1.888,1.518-1.518,4.572-1.154,6.091.633h0Z"/>
    <path class="st0" d="M32.743,24.375c-.867,2.679-2.113,2.855-4.573,3.284-6.399,1.662-1.545-11.77,4.946-10.088.138.036.277.069.417.095,9.049,1.678,4.928,15.19-.79,6.709Z"/>
    <path class="st0" d="M27.577,10.45c2.17,1.606,1.048,6.596-2.015,5.309-3.785-2.085-1.761-10.09,2.015-5.309h0Z"/>
    <path class="st0" d="M36.438,8.118c1.484,2.059.909,6.427-1.961,5.423-.302-.106-.574-.29-.779-.536-.921-1.106-.814-2.662-.558-4.119.282-1.605,2.345-2.09,3.298-.768h0Z"/>
    <path class="st0" d="M41.309,12.918c2.423-.701,3.194,2.896,2.621,4.654-.811,2.49-4.696,1.308-4.247-2.052.09-.675.954-2.408,1.626-2.602h0Z"/>
    <path class="st0" d="M20.072,15.232c1.853.761,3.1,3.467.996,4.333-.149.061-.31.096-.471.102-1.898.066-2.616-1.702-2.39-3.35.121-.884,1.04-1.424,1.865-1.085h0Z"/>
  </g>
  <path d="M16.961,14.175l-1.205-4.354c-.111-.402.387-.688.678-.389l2.929,3.011"/>
  <path d="M22.496,8.023l-.537-5.778c-.042-.454.548-.665.803-.287l3.341,4.941"/>
  <path d="M33.265,6.282l2.191-5.982c.152-.416.748-.394.87.031l.903,5.932"/>
  <path d="M41.34,11.172l3.632-3.452c.288-.274.755.002.654.387l-1.297,4.922"/>
</svg>