<?xml version="1.0" encoding="UTF-8"?>
<svg id="Ebene_1" xmlns="http://www.w3.org/2000/svg" version="1.1" viewBox="0 0 64 64">
  <!-- Generator: Adobe Illustrator 29.8.2, SVG Export Plug-In . SVG Version: 2.1.1 Build 3)  -->
  <defs>
    <style>
      .st0 {
        fill: #fff;
        stroke: #000;
        stroke-miterlimit: 10;
      }
    </style>
  </defs>
  <path d="M38.06,6.822c.595.478,1.045,1.965,1.352,3.294.179.775.942,1.204,1.714,1.011,1.691-.422,3.413,1.415,4.225,3.041.024.049.046.099.066.15,2.503,6.549-4.259,3.193-.807,21.57.005.029,1.591,7.619,3.176,15.002,1.287,5.992-2.661,11.887-8.705,12.902-.138.023-.275.046-.412.068-5.864.94-11.415-2.92-12.567-8.746-.137-.692-.258-1.34-.354-1.908-1.07-6.334-1.924-12.729-3.762-18.861-.012-.039-.022-.08-.029-.12-1.215-6.424-7.205-12.408-5.764-19.115.02-.093.049-.184.087-.271.699-1.578,2.229-2.96,3.399-2.276,2.652,1.549,1.663-.504,1.672-1.39.034-3.123,2.342-6.114,5.867-3.537,3.273,3.554,3.438,1.571,3.739.439.138-.519.377-1.234,1.026-1.883,1.514-1.514,4.562-1.151,6.077.631h0Z"/>
  <path class="st0" d="M32.549,24.468c-.865,2.673-2.108,2.848-4.562,3.276-6.384,1.658-1.542-11.743,4.935-10.064.137.036.276.069.416.095,9.028,1.674,4.917,15.154-.788,6.693Z"/>
  <path class="st0" d="M27.395,10.576c2.165,1.602,1.045,6.581-2.011,5.296-3.776-2.08-1.757-10.066,2.011-5.296h0Z"/>
  <path class="st0" d="M36.235,8.249c1.48,2.054.907,6.412-1.956,5.41-.301-.106-.573-.29-.777-.535-.919-1.104-.813-2.656-.557-4.109.282-1.601,2.34-2.085,3.291-.766h0Z"/>
  <path class="st0" d="M41.095,13.037c2.418-.7,3.187,2.889,2.615,4.643-.809,2.484-4.685,1.305-4.237-2.047.09-.674.952-2.402,1.622-2.596h0Z"/>
  <path class="st0" d="M19.908,15.346c1.849.759,3.092,3.459.994,4.323-.149.061-.309.096-.47.101-1.894.066-2.61-1.698-2.384-3.342.121-.882,1.038-1.421,1.861-1.083h0Z"/>
</svg>